<svg id="Layer_1" data-name="Layer 1"
  xmlns="http://www.w3.org/2000/svg" viewBox="0 0 261.29 185.43">
  <defs>
    <style>.cls-1{fill:#fff;}.cls-2{fill:#da1f2c;}.cls-3{fill:none;stroke:#fff;stroke-miterlimit:10;stroke-width:4px;}</style>
  </defs>
  <path class="cls-1" d="M86.91,72.51a2.72,2.72,0,0,1,0-.28,101,101,0,0,1,3.36-21.36,69.89,69.89,0,0,1,6.09-16.34,31.58,31.58,0,0,1,8.7-10.34,19.89,19.89,0,0,1,15.41-3.87c6.85,1.36,12.22,7,15.09,13.36s3.66,13.44,4.42,20.38l1.65,15.28c.3,2.73.57,5.61-.54,8.13A7.88,7.88,0,0,1,127.62,79c-1.51-2-2-5.27-2.6-7.7a8.7,8.7,0,0,0-8.52-7c-4.41-.26-8.77.83-11.45,4.48-1.51,2.05-2.24,5.22-3.21,7.57-1.2,2.93-3,5.87-6.31,6.63a6.74,6.74,0,0,1-5.81-1.42C87.08,79.39,86.8,75.82,86.91,72.51Zm33.36-22.18A2.5,2.5,0,0,0,122,49.6a3.23,3.23,0,0,0,.36-2.83c-.57-2.9-1.89-11.57-6.45-10.12-3.74,1.19-7.17,7.6-7.08,11.36a1.92,1.92,0,0,0,.88,1.63,3,3,0,0,0,1.27.27c2.74.17,5.48.32,8.22.42C119.58,50.34,119.93,50.35,120.27,50.33Z"/>
  <path class="cls-1" d="M32.71,52.86c.07-9.43,2.87-17.8,9.42-24.79,6.35-6.77,14.34-8.16,23.05-7.18a22.7,22.7,0,0,1,9.59,3.24,14.07,14.07,0,0,1,6.3,7.74,7.25,7.25,0,0,1-3.26,8.8,6.71,6.71,0,0,1-8.38-1.33,10.17,10.17,0,0,0-9-3.26,12.9,12.9,0,0,0-8.31,5.35,18.59,18.59,0,0,0-3.21,9.5,16.2,16.2,0,0,0,1.43,8.45,12.88,12.88,0,0,0,7.46,6.33,7.53,7.53,0,0,0,5.35,0,28.19,28.19,0,0,0,2.92-1.86A8,8,0,0,1,76.78,75.2a16.31,16.31,0,0,1-11,7.11c-12.39,1.85-25-5.22-30.48-16.25A28.34,28.34,0,0,1,32.71,52.86Z"/>
  <path class="cls-1" d="M148.22,28.35c.07-.8.16-1.59.3-2.36,1.09-6.11,10.13-8,13.44-2.6a14,14,0,0,1,1.62,7.14c.15,8.06-.13,16.12.17,24.19a22.84,22.84,0,0,0,.47,4c.94,4.34,3.15,7.08,7.58,7.67,3,.41,6-.52,9.07-.41,2.86.11,5.9.55,8.16,2.48a7.88,7.88,0,0,1-3.71,13.72,40.16,40.16,0,0,1-7.8.79c-6.24-.2-11.34,0-17.41-1.81-5.17-1.57-9.14-6.15-10.7-11.25-2-6.63-2-13.57-1.83-20.44.1-4.12.23-8.26.39-12.39C148.08,34.28,148,31.25,148.22,28.35Z"/>
  <path class="cls-1" d="M197.73,28.35c.07-.8.17-1.59.3-2.36,1.09-6.11,10.13-8,13.44-2.6a14.09,14.09,0,0,1,1.63,7.14c.14,8.06-.14,16.12.16,24.19a23.82,23.82,0,0,0,.47,4c.94,4.34,3.16,7.08,7.58,7.67,3,.41,6-.52,9.07-.41,2.87.11,5.91.55,8.16,2.48a7.88,7.88,0,0,1-3.71,13.72A40.16,40.16,0,0,1,227,83c-6.24-.2-11.33,0-17.4-1.81-5.18-1.57-9.15-6.15-10.71-11.25-2-6.63-2-13.57-1.82-20.44.1-4.12.23-8.26.38-12.39C197.59,34.28,197.48,31.25,197.73,28.35Z"/>
  <path class="cls-1" d="M123,147.78c1.13.9,3.22.87,4.52.77,2.25-.17,4.51-.77,6.77-.87s6.55-.17,8.79.46a7.54,7.54,0,0,1,5.73,7,7.92,7.92,0,0,1-6.2,8.24,64.94,64.94,0,0,1-22.16.41c-9.32-1.61-13.74-7.53-14.71-17.08A99.3,99.3,0,0,1,106.93,118a22,22,0,0,1,7.54-12.86c4.12-3.34,9.91-4.41,15.1-4.45a58.7,58.7,0,0,1,14.7,1.67c3.13.85,5.56,3.11,5.59,6.54,0,3.85-3.25,6.88-6.94,7.23-5.19.49-8.16-.13-13.55.5a7.69,7.69,0,0,0-4.26,1.85,4.68,4.68,0,0,0-1.06,4.87,4.28,4.28,0,0,0,3.18,2c1.28.21,3.84.15,5.1.41,2.58.54,5.31,1.45,5.58,5.08a7.6,7.6,0,0,1-6.77,8.41c-2.19.3-5.44-.61-7.85,1.85C122.17,142.14,121.42,146.52,123,147.78Z"/>
  <path class="cls-1" d="M79.69,131.12c-1-2-5.36,3.34-6.09,4.16-2.56,2.88-6.2,7.81-10.73,6.3a6.36,6.36,0,0,1-2.6-1.77c-2-2.17-3.7-4.64-5.58-6.92-.91-1.1-2-3.17-3-2.79-1.49.53-1.75,2.08-1.85,3.46-.15,2.21-.35,4.43-.53,6.65q-.42,4.89-.83,9.78c-.25,2.88-.08,6.13-1.49,8.74a7.6,7.6,0,0,1-7.46,3.81c-3.67-.48-6-3.53-6.48-7-.61-4.14-.16-8.47-.11-12.65.1-10,0-20,.78-30,.69-7.61,8.48-12.53,15.48-9a31.76,31.76,0,0,1,7.78,5.8c1.54,1.54,5,5.44,7,7.75a1.76,1.76,0,0,0,2.77-.16c.25-.36.51-.73.75-1.1,3.24-4.83,7.47-9.22,12.73-11.83a13.42,13.42,0,0,1,7.09-1.66,9,9,0,0,1,6.16,3.23c2.53,3.14,2.68,7.58,2.94,11.47.18,2.78.27,5.58.24,8.37l-.32,25.07a15.5,15.5,0,0,1-.84,5.92A7.75,7.75,0,0,1,83,159.36c-3-2.86-3.11-7.23-3.29-11.08-.26-5.4.28-10.78.15-16.17A2.46,2.46,0,0,0,79.69,131.12Z"/>
  <path class="cls-1" d="M191.53,123.08h-.05c0,3.81.06,7.62,0,11.42a23.48,23.48,0,0,1-.61,5.3,8.24,8.24,0,0,1-9.1,6.32,8.13,8.13,0,0,1-7.39-8.23c.08-5.11.61-10.21.9-15.32.24-4.4.4-8.8.64-13.19a20.13,20.13,0,0,1,.4-3.89,7.39,7.39,0,0,1,7.28-5.71,7.28,7.28,0,0,1,7.17,5.85,64.09,64.09,0,0,1,.77,8.87C191.63,117.35,191.53,120.22,191.53,123.08Zm-.11,33.78a8.47,8.47,0,1,1-8.56-8.19A8.39,8.39,0,0,1,191.42,156.86Z"/>
  <path class="cls-2" d="M208.61,117a3,3,0,0,0-1-.63c-.46-.23-.93-.45-1.4-.65a26.92,26.92,0,0,0-2.71-1c-.63-.21-1.27-.39-1.91-.54l-.71-.21a45.83,45.83,0,0,0-.72-5.35,17.69,17.69,0,0,0-.94-3.19,3.24,3.24,0,0,0-1.63-1.87c-.91-.35-1.52.26-1.83,1.06a17.72,17.72,0,0,0-.87,3.19,42.46,42.46,0,0,0-.58,5.63l-.44.11c-1,.27-2,.56-3,.9a20.26,20.26,0,0,0-2.81,1.16c-.79.41-1.73.87-1.4,1.92.62,2,3.13,1.83,4.74,2a23,23,0,0,1,3.05.64A41.82,41.82,0,0,0,195.7,127c.31,1.13.66,2.25,1.07,3.35.29.79.65,1.78,1.67,1.73s1.46-1,1.65-1.87c.27-1.17.48-2.34.67-3.52a28.69,28.69,0,0,0,.4-6.34c1.37-.21,2.74-.44,4.1-.68A8.12,8.12,0,0,0,208,119C208.66,118.57,209.19,117.69,208.61,117Z"/>
  <path class="cls-3" d="M250.26,54.84A29.58,29.58,0,0,0,233,48.14a2,2,0,0,1-1.88-2c0-1.74,0-3.5,0-5.31,0-3.45,0-7,0-10.61A31.36,31.36,0,0,0,226.84,14,24.68,24.68,0,0,0,205.55,2.19a25.57,25.57,0,0,0-23.2,14.39,2,2,0,0,1-3.65,0A26.16,26.16,0,0,0,177.33,14,24.68,24.68,0,0,0,156,2.19a25.94,25.94,0,0,0-16.57,5.92,2,2,0,0,1-2.44.08,35.66,35.66,0,0,0-13-5.53A34.66,34.66,0,0,0,117.23,2,38.91,38.91,0,0,0,94.4,9.69q-1.55,1.14-3,2.43a2,2,0,0,1-2.64,0,35.14,35.14,0,0,0-4.51-3.31A40.69,40.69,0,0,0,67.19,3a61.07,61.07,0,0,0-6.76-.39C47.76,2.61,37.18,7,29,15.76A51.56,51.56,0,0,0,15.66,42.31a1.91,1.91,0,0,1-.25.65,25.89,25.89,0,0,0-2.48,5.43l-.18.59a2.11,2.11,0,0,1-.89,1.15C2.09,56.3,1.85,65.53,2,68.35a19.78,19.78,0,0,0,10.8,16.18,2.05,2.05,0,0,1,1,1.19c.14.43.28.84.43,1.25A27.69,27.69,0,0,0,19.73,96a2,2,0,0,1,.25,2.4,29.48,29.48,0,0,0-4.21,12.8l0,.14c-.71,8.6-.76,17-.8,25.11q0,3.11,0,6.22c0,1-.05,2-.09,3a66.11,66.11,0,0,0,.4,12.47C17,170,25.78,178.9,37.16,180.38a24.79,24.79,0,0,0,3.23.21,25.77,25.77,0,0,0,22.39-13.28l0,0a2,2,0,0,1,3.53-.12,25.92,25.92,0,0,0,22,12.31,25.41,25.41,0,0,0,5.29-.55,25.8,25.8,0,0,0,7.42-2.83,2.06,2.06,0,0,1,2.19.06,36.88,36.88,0,0,0,14.09,5.41,75.69,75.69,0,0,0,12.79,1,81.7,81.7,0,0,0,16-1.53,25.57,25.57,0,0,0,13.28-7.35,2,2,0,0,1,3.07.11,26.48,26.48,0,0,0,20.18,9.63H183a26.64,26.64,0,0,0,19-8,26.12,26.12,0,0,0,7.47-19,26.84,26.84,0,0,0-1.27-7.5c-.25-.78,12.34-13.26,14.15-15.64,5.08-6.67,5.49-21.33.18-27.76q-.33-.39-.66-.75c-1.52-1.49-.52-3.49,1.68-3.83h.13l2.82.07,1.07,0a60.58,60.58,0,0,0,10.93-1.16,25.88,25.88,0,0,0,11.81-45Z"/>
  <path class="cls-2" d="M45.46,66.82c-2.17-1.42-4.14-2.19-9-3.54-1-15.24-7.16-16.77-7.6-.62-11.53,2.88-12.2,6.35.18,7.81,2.22,18.68,7.79,17.94,7.79.21C38.8,70,46.78,70.45,45.46,66.82Z"/>
</svg>