<svg id="Layer_1" data-name="Layer 1"
  xmlns="http://www.w3.org/2000/svg" viewBox="0 0 77.66 52.27">
  <defs>
    <style>.cls-1{fill:#fff;}</style>
  </defs>
  <path class="cls-1" d="M75.3,24.84c-3.07-2.08-6-5.07-9.94-5.06-7.19,0-8.24,8-11.36,12.7-2.29,3.44-6,2.82-8.79.1-3.37-3.35-4.52-8.36-7.77-11.85-2.65-2.84-6.61-4.82-10.53-3.73-3.29.91-5.41,3.66-7.15,6.41-1.93,3-3.6,6.63-7.33,7.73C8.18,32.39,3.86,30.5.64,27.75c-.1.82-.23,1.63-.36,2.45l0,2.5c5.38,3.46,12,4.85,17.51.48,4.6-3.66,8.08-16.81,15.66-10.3,3.62,3.1,4.84,8.18,7.85,11.8,2.62,3.15,6.92,5.49,11.08,4.34C56,38,58,34.6,59.46,31.38c1.09-2.41,2.27-6.67,5.32-7.21,2.33-.42,4.58,1.64,6.29,2.92a22.66,22.66,0,0,0,5.11,3.16c.07-1.58.17-3.15.28-4.73A12.51,12.51,0,0,1,75.3,24.84Z"/>
  <path class="cls-1" d="M77,5.11C74.53,2.4,71.68,0,67.78,0,63.65.05,60,2.57,57.47,5.7a40.36,40.36,0,0,0-3.26,4.89c-1.05,1.78-2.07,4.19-3.74,5.5-2,1.55-3-1-3.76-2.5a31.73,31.73,0,0,0-3.2-5.06,16.09,16.09,0,0,0-9.32-6.07A15.88,15.88,0,0,0,23.65,4.08c-3.71,2-5.5,5.34-7.53,8.86-1,1.68-2.07,3.36-4,4.1-2.26.9-3.44-.86-4.55-2.56A43.21,43.21,0,0,0,.18,5.32c.14,1,.24,2.07.29,3.12C.49,9,.5,9.49.49,10l.31,2.3c1.1,1.41,2.11,2.89,3.08,4.36,2.08,3.19,4.73,5.77,8.85,4.75S19,16.7,20.9,13.25c2-3.65,4.86-6.3,9.19-6.7S38,8.34,40.51,11.71c2.13,2.84,3.17,7.52,6.77,8.94,4.76,1.88,7.93-3.22,10-6.64,2.31-3.93,5.25-9.59,10.54-9.67,4.08-.06,6.4,4.49,9.33,6.94C77.1,9.22,77.06,7.16,77,5.11Z"/>
  <path class="cls-1" d="M77.16,43.78A38,38,0,0,1,76.37,39l-.62-.43C73,36.7,69.88,35.82,66.63,37c-3.08,1.13-5.42,3.44-7.6,5.81s-4.68,5.23-8.24,5.11c-3.8-.12-7.26-2.78-10.14-5-1.52-1.17-3-2.42-4.41-3.71a25.15,25.15,0,0,0-3.88-3.42c-3-1.74-6.05.65-8.34,2.49-2.64,2.12-5.1,4.87-8.49,5.71-6,1.49-11.17-2.6-15.37-6.68,0,1.9-.1,3.81-.16,5.71,3.69,3,7.87,5.42,12.83,5.58a14.87,14.87,0,0,0,9.4-3.23c1.32-1,2.55-2.09,3.81-3.15a24.63,24.63,0,0,1,2.23-1.73c.85-.58,1.48-1.12,2.41-.56,1.55.93,2.91,2.76,4.3,4,1.68,1.42,3.41,2.79,5.2,4.07,2.94,2.11,6.24,4,9.91,4.28,3.93.34,7.25-1.57,10-4.22s5.31-6.85,9.34-7.21c3.07-.28,5.44,2.58,8.25,3.85A1.91,1.91,0,0,1,77.16,43.78Z"/>
</svg>