<svg id="Layer_1" data-name="Layer 1"
  xmlns="http://www.w3.org/2000/svg" viewBox="0 0 531.02 86.97">
  <defs>
    <style>.cls-1{fill:#e56a73;}</style>
  </defs>
  <path class="cls-1" d="M234.46,28.9c-.23,2.18-1,2.83,2.38,5.73A29.75,29.75,0,0,1,246.8,54a24.79,24.79,0,0,1-4.28,17.2c-3.08,4.22-7.64,7.17-12.46,9.21a42.07,42.07,0,0,1-16.93,3.38,36.89,36.89,0,0,1-8.69-1.17c-2.77-.72-5.32-2-8.07-2.82-3.6-1-7.39,1.1-10.86-.72-2.63-1.38-3.95-4.14-4.42-7a82.53,82.53,0,0,1-.6-16.41c.2-6.12.63-12.22,1.37-18.29.84-7,2-14,4.93-20.46,2.79-6.19,7.32-11.79,13.43-14.73A23.66,23.66,0,0,1,215.14.49C228.45,3.27,235.8,16.16,234.46,28.9ZM211.52,63.38c3.46.16,7.51-.3,10.57-2.23,3.79-2.39,4.82-8.16,2.17-12-3.5-5-12.18-4.33-16.9-2.12a11.36,11.36,0,0,0-4,3,7.31,7.31,0,0,0-.69,8.66A10.66,10.66,0,0,0,211.52,63.38Zm-2-31.62c3.91-.05,6.57-2.58,6.55-6.25s-2.61-6.5-5.91-6.46c-4.28.06-7.61,3.12-7.58,7C202.61,29.59,205.32,31.82,209.53,31.76Z"/>
  <path class="cls-1" d="M93.12,62.69c1.42,1.14,4,1.11,5.68,1,2.84-.22,5.69-1,8.53-1.09s8.24-.23,11,.57A9.5,9.5,0,0,1,125.6,72a10,10,0,0,1-7.8,10.38,81.91,81.91,0,0,1-27.89.51c-11.73-2-17.29-9.47-18.51-21.5a125,125,0,0,1,1.52-36.21A27.57,27.57,0,0,1,82.41,9c5.19-4.21,12.46-5.55,19-5.6a73.9,73.9,0,0,1,18.51,2.09c3.94,1.08,7,3.93,7,8.24,0,4.85-4.09,8.66-8.74,9.1-6.53.62-10.27-.16-17,.62a9.69,9.69,0,0,0-5.37,2.34c-1.46,1.32-2.24,4.37-1.33,6.12a5.37,5.37,0,0,0,4,2.45c1.6.27,4.82.19,6.41.52,3.25.68,6.69,1.83,7,6.39s-2.13,9.74-8.52,10.59c-2.76.37-6.85-.76-9.89,2.33C92.1,55.6,91.15,61.11,93.12,62.69Z"/>
  <path class="cls-1" d="M.89,15c.09-1,.21-2,.38-3C2.64,4.37,14,2,18.18,8.78c1.62,2.66,2,5.88,2.05,9,.18,10.14-.17,20.29.21,30.45A28.87,28.87,0,0,0,21,53.3c1.18,5.46,4,8.91,9.54,9.66,3.8.51,7.59-.66,11.41-.52,3.61.13,7.43.69,10.27,3.12a9.91,9.91,0,0,1-4.67,17.27,50.64,50.64,0,0,1-9.82,1c-7.85-.25-14.26,0-21.9-2.28-6.52-2-11.51-7.74-13.47-14.15C-.17,59-.12,50.31.09,41.67q.2-7.8.49-15.6C.72,22.49.57,18.68.89,15Z"/>
  <path class="cls-1" d="M476.21,16c.08-1,.21-2,.38-3C478,5.35,489.34,2.93,493.5,9.77c1.62,2.65,2,5.87,2,9,.19,10.15-.17,20.29.21,30.45a31,31,0,0,0,.59,5.09c1.18,5.45,4,8.9,9.55,9.65,3.8.51,7.59-.66,11.41-.52,3.6.14,7.43.69,10.26,3.12a9.91,9.91,0,0,1-4.66,17.27,50.71,50.71,0,0,1-9.82,1c-7.85-.25-14.26,0-21.9-2.28-6.52-2-11.51-7.74-13.47-14.15-2.56-8.35-2.51-17.08-2.3-25.72q.19-7.8.49-15.59C476,23.47,475.89,19.66,476.21,16Z"/>
  <path class="cls-1" d="M413.49,74.57c-1.14-1.5-3.06-2-4.51.05a22.1,22.1,0,0,1-4.21,4.8,19.41,19.41,0,0,1-28-3.54,41.42,41.42,0,0,1-5.31-11.27,102.5,102.5,0,0,1-3.32-13c-2-10.77-3.66-21.63-5.48-32.44-.49-2.85-.94-5.91.26-8.54a8.54,8.54,0,0,1,5.47-4.46,8.87,8.87,0,0,1,6.86.77,10.51,10.51,0,0,1,4.07,4.83c2.55,5.6,3.38,12.36,4.78,18.32L387,42.4c.56,2.41.9,4.88,1.56,7.27.49,1.78,1.29,5.18,3.36,5.79a2.88,2.88,0,0,0,2.45-.57c3.93-2.86,5.91-9,6.66-13.61.64-3.88,2-7,5.36-9A10.51,10.51,0,0,1,416.8,32c4.12,2.28,4.71,6.39,5.45,10.22.62,3.2,1.4,7.35,3.32,10a4.57,4.57,0,0,0,1.8,1.61,2.83,2.83,0,0,0,2.52-.15,4.85,4.85,0,0,0,1.53-1.59A19.68,19.68,0,0,0,434.07,46c2.64-10.55,4.59-19.09,6.91-29.27,1-4.19,3.24-7.31,7.59-8.42,7.68-1.95,14.06,4.5,12.35,12.63-2.27,10.74-4.48,21.51-7.28,32.11-1.75,6.57-4.27,13.62-7.95,19.38-5,7.77-13.58,13.82-23,10.12A17,17,0,0,1,416,77.64C415.15,76.67,414.29,75.63,413.49,74.57Z"/>
  <path class="cls-1" d="M304.42,64.21a29.61,29.61,0,0,0,27.72-31.95c-.52-6.09-2.84-12.13-7.55-16.21-4-3.48-9.38-5.13-14.53-5.57a37.75,37.75,0,0,0-13.74,1.21c-5.66,1.75-9.89,6.11-12.93,11-3.15,5.11-4.29,10.84-4.45,16.78C278.63,54.48,289.47,65,304.42,64.21Zm-7-27.33a11.58,11.58,0,0,1,2.67-6.71c2.47-3.19,8.4-2.77,11-1,3.17,2.23,2.78,7.77,1.1,10.88s-4.27,4.92-8.54,5C298.9,45.13,297.15,40.66,297.38,36.88Z"/>
  <path class="cls-1" d="M350.9,40.45c.57,21.61-15,40.88-36.06,45.37a52.11,52.11,0,0,1-21.75,0c-13.2-2.84-25.71-11.54-30.71-24.08a39.89,39.89,0,0,1-2.69-23.33,15.69,15.69,0,0,1,1.63-5.17,6.1,6.1,0,0,1,4.24-3.12c7.76-1,7.8,12.2,8.72,17.15,1.78,9.47,6.66,17.72,16.08,21.18,14.44,5.31,31.22,2.17,40.95-10.29a33.37,33.37,0,0,0,6.45-14.36c.63-3.38.14-7.06,1.69-10.23a6,6,0,0,1,4-3.38c2.29-.42,4.61,1.06,5.81,3.05A13.94,13.94,0,0,1,350.89,40C350.89,40.12,350.9,40.29,350.9,40.45Z"/>
</svg>