<svg id="Layer_1" data-name="Layer 1"
  xmlns="http://www.w3.org/2000/svg" viewBox="0 0 341.65 181.73">
  <defs>
    <style>.cls-1{fill:#fff;}.cls-2{fill:#da1f2c;}.cls-3{fill:none;stroke:#fff;stroke-miterlimit:10;stroke-width:4px;}</style>
  </defs>
  <path class="cls-1" d="M236.27,144.07c1.13.9,3.22.88,4.52.77,2.25-.17,4.51-.77,6.77-.86s6.55-.18,8.78.45a7.56,7.56,0,0,1,5.74,7,7.92,7.92,0,0,1-6.2,8.24,65,65,0,0,1-22.16.41C224.4,158.5,220,152.58,219,143a99.3,99.3,0,0,1,1.21-28.78,22,22,0,0,1,7.54-12.86c4.12-3.34,9.9-4.41,15.09-4.44a58.26,58.26,0,0,1,14.71,1.66c3.13.86,5.55,3.12,5.59,6.55,0,3.85-3.25,6.88-6.95,7.23-5.18.49-8.15-.13-13.54.49a7.66,7.66,0,0,0-4.27,1.86,4.65,4.65,0,0,0-1,4.86,4.25,4.25,0,0,0,3.18,2c1.27.22,3.83.15,5.1.41,2.58.55,5.31,1.45,5.58,5.08a7.62,7.62,0,0,1-6.77,8.42c-2.19.29-5.45-.61-7.85,1.85C235.46,138.43,234.7,142.81,236.27,144.07Z"/>
  <path class="cls-1" d="M193,127.41c-1-2-5.36,3.34-6.09,4.16-2.56,2.88-6.2,7.82-10.73,6.3a6.26,6.26,0,0,1-2.6-1.77c-2-2.17-3.7-4.64-5.58-6.92-.91-1.1-2-3.16-3-2.79-1.49.54-1.75,2.08-1.85,3.46-.15,2.22-.35,4.43-.54,6.65-.27,3.26-.55,6.52-.82,9.78-.25,2.88-.08,6.13-1.5,8.74a7.58,7.58,0,0,1-7.45,3.81c-3.67-.48-6-3.52-6.48-7-.61-4.14-.16-8.47-.11-12.64.1-10,0-20,.78-30,.69-7.61,8.48-12.53,15.48-9a31.66,31.66,0,0,1,7.78,5.79c1.53,1.54,5,5.44,7,7.75a1.77,1.77,0,0,0,2.77-.15l.75-1.11a34.18,34.18,0,0,1,12.73-11.83A13.61,13.61,0,0,1,200.58,99a8.93,8.93,0,0,1,6.15,3.24c2.54,3.13,2.69,7.57,3,11.46.18,2.79.27,5.58.24,8.37l-.32,25.07a15.77,15.77,0,0,1-.84,5.93,7.76,7.76,0,0,1-12.46,2.63c-3-2.86-3.11-7.23-3.3-11.08-.25-5.4.29-10.78.16-16.17A2.5,2.5,0,0,0,193,127.41Z"/>
  <path class="cls-1" d="M304.82,119.37h-.05c0,3.81.06,7.62,0,11.43a24,24,0,0,1-.61,5.29,8.24,8.24,0,0,1-9.1,6.33,8.14,8.14,0,0,1-7.39-8.24c.08-5.11.61-10.21.9-15.32.24-4.39.4-8.79.64-13.19a19.28,19.28,0,0,1,.4-3.88,7.4,7.4,0,0,1,7.28-5.72,7.29,7.29,0,0,1,7.17,5.85,65.68,65.68,0,0,1,.77,8.88C304.92,113.65,304.82,116.51,304.82,119.37Zm-.11,33.79a8.47,8.47,0,1,1-8.56-8.2A8.4,8.4,0,0,1,304.71,153.16Z"/>
  <path class="cls-2" d="M153.61,142.28a3,3,0,0,0-1-.64c-.46-.23-.93-.45-1.4-.65-.89-.39-1.79-.73-2.71-1-.63-.21-1.27-.38-1.91-.54l-.71-.2a46,46,0,0,0-.72-5.36,17.36,17.36,0,0,0-.94-3.18,3.21,3.21,0,0,0-1.63-1.87c-.91-.35-1.52.26-1.83,1.05a17.6,17.6,0,0,0-.87,3.2,42.31,42.31,0,0,0-.58,5.62l-.44.11c-1,.27-2,.57-3,.9a20.31,20.31,0,0,0-2.81,1.17c-.79.4-1.73.86-1.4,1.91.62,2,3.13,1.83,4.74,2a23,23,0,0,1,3.05.64,41.94,41.94,0,0,0,1.27,6.85c.31,1.12.66,2.24,1.07,3.34.29.79.65,1.78,1.67,1.73s1.46-1,1.65-1.87c.27-1.16.48-2.34.67-3.52a28.69,28.69,0,0,0,.4-6.34c1.37-.21,2.74-.44,4.1-.68a8.11,8.11,0,0,0,2.72-.67C153.66,143.87,154.19,143,153.61,142.28Z"/>
  <path class="cls-1" d="M150.94,57.28c0-5.26.13-10.51.53-15.73,1.05-13.67,12.58-23.21,25.9-21.31a23.84,23.84,0,0,1,14.16,7.61,38,38,0,0,1,6.93,11.29c2.78,6.72,4.21,14.16,3,21.34S196.29,74.54,190,78.28a28.51,28.51,0,0,1-13.11,3.62c-7,.39-15.15,0-21.78-2.44-3.29-1.23-4.33-4.11-4.27-7.42C151,67.13,150.92,62.2,150.94,57.28Zm15.21-5.09c-.14,3.71.27,7.38,1.88,10.22,2,3.45,6.38,3.87,9.95,3.53a8.63,8.63,0,0,0,7.69-8.12,26.63,26.63,0,0,0-4.09-16.67,12.37,12.37,0,0,0-5.44-4.95,6.15,6.15,0,0,0-6.85,1.31C166.28,41,166.32,47.8,166.15,52.19Z"/>
  <path class="cls-1" d="M224.53,65.66c1.09.87,3.11.85,4.36.75,2.18-.17,4.36-.75,6.54-.83s6.33-.18,8.48.43a7.28,7.28,0,0,1,5.54,6.78,7.66,7.66,0,0,1-6,8,62.79,62.79,0,0,1-21.4.4c-9-1.55-13.27-7.27-14.2-16.5A95.61,95.61,0,0,1,209,36.87a21.15,21.15,0,0,1,7.28-12.42c4-3.23,9.56-4.25,14.57-4.29a56.9,56.9,0,0,1,14.19,1.6c3,.83,5.37,3,5.41,6.33a7.26,7.26,0,0,1-6.71,7c-5,.47-7.87-.13-13.08.47a7.51,7.51,0,0,0-4.12,1.79,4.52,4.52,0,0,0-1,4.7,4.13,4.13,0,0,0,3.08,1.88c1.23.21,3.7.15,4.92.4,2.49.53,5.13,1.4,5.39,4.9a7.35,7.35,0,0,1-6.54,8.13c-2.11.28-5.26-.59-7.58,1.79C223.75,60.22,223,64.45,224.53,65.66Z"/>
  <path class="cls-1" d="M61.26,80a28.94,28.94,0,0,1-17.72-5.07c-9.31-6.66-12.38-15.79-10.08-26.82,2.23-10.74,9.93-23,21.33-25.57A20.76,20.76,0,0,1,57,22.16,27,27,0,0,1,83.41,36.74a28.63,28.63,0,0,1,2.77,14.63A36.65,36.65,0,0,1,81.7,66.13c-2.37,4.46-5,8.22-9.48,10.82A23.86,23.86,0,0,1,61.26,80Zm9-31.28a13.08,13.08,0,0,0-3.14-7c-2.23-2.53-5.93-4.14-9.31-2.81-4.15,1.65-6.75,5.34-8.19,9.21-1.33,3.58-1.68,9.23.9,12.34,2.24,2.7,6.06,3.72,9.64,3.73a8.76,8.76,0,0,0,7.33-3.65A16.37,16.37,0,0,0,70.24,48.7Z"/>
  <path class="cls-1" d="M131.3,59.66c1.45,1.29,3.25,2.55,4.69,3.83a30.82,30.82,0,0,1,4.35,4,8.86,8.86,0,0,1,2.07,6.18,7.41,7.41,0,0,1-2.74,4.88,7,7,0,0,1-5.5,1.6,9.47,9.47,0,0,1-4.23-2.12c-2.84-2.26-5.06-5.16-7.66-7.68-2.31-2.25-2.55-3.27-5.84-3.33-1.44,0-4.26,0-5.92,0,0,2.1,0,4.23,0,6.37A6.79,6.79,0,0,1,106.58,80c-4.28,2.09-8.7-.74-9.76-5.1-1.49-6.09-1-12.77-1.12-19-.27-10.46-1.43-24.79,8.58-31.52,4-2.72,9.09-3.36,13.87-3.08,9.91.58,17.73,7,19.72,16,1.66,7.49.3,14.33-4.74,20.29C132.64,58.18,132.11,58.76,131.3,59.66ZM110.84,46.1c-.07,2.69.61,5.11,3.21,5.15,2.86,0,6.55-2.47,7.91-4.94s1.15-6.07-1.06-7.92a7.89,7.89,0,0,0-5.55-1.48c-1.69.17-3.12.78-3.67,2.37A30.09,30.09,0,0,0,110.84,46.1Z"/>
  <path class="cls-1" d="M293.72,59.66c1.45,1.29,3.24,2.55,4.69,3.83a31.37,31.37,0,0,1,4.35,4,8.85,8.85,0,0,1,2.06,6.18,7.36,7.36,0,0,1-2.73,4.88,7,7,0,0,1-5.51,1.6,9.49,9.49,0,0,1-4.22-2.12c-2.84-2.26-5.07-5.16-7.66-7.68-2.31-2.25-2.55-3.27-5.84-3.33-1.44,0-4.27,0-5.93,0,0,2.1,0,4.23,0,6.37A6.78,6.78,0,0,1,269,80c-4.28,2.09-8.69-.74-9.76-5.1-1.49-6.09-1-12.77-1.12-19-.27-10.46-1.42-24.79,8.59-31.52,4.05-2.72,9.09-3.36,13.86-3.08,9.91.58,17.74,7,19.72,16,1.66,7.49.3,14.33-4.74,20.29C295.06,58.18,294.52,58.76,293.72,59.66ZM273.25,46.1c-.07,2.69.62,5.11,3.21,5.15,2.87,0,6.56-2.47,7.92-4.94s1.15-6.07-1.07-7.92a7.86,7.86,0,0,0-5.54-1.48c-1.7.17-3.12.78-3.67,2.37A30,30,0,0,0,273.25,46.1Z"/>
  <path class="cls-2" d="M321.46,40.12c-2.17-1.43-4.14-2.2-9-3.55-1-15.24-7.16-16.77-7.6-.62-11.53,2.88-12.2,6.35.18,7.81,2.22,18.68,7.79,17.94,7.79.22C314.8,43.28,322.78,43.75,321.46,40.12Z"/>
  <path class="cls-3" d="M338,34.16a24.48,24.48,0,0,0-3.91-5.32c-.95-1-2-1.91-3-2.94-.49-.54-2.62-2.14-2.76-2.6-4.6-14.94-15.1-16.82-20.07-16.82a19.47,19.47,0,0,0-8.78,2.15,40.82,40.82,0,0,0-17.9-5.24c-1-.06-2.05-.09-3.05-.09a39.15,39.15,0,0,0-20.23,5.17,26.29,26.29,0,0,0-8.51-4.07,74.05,74.05,0,0,0-18.5-2.24h-.56c-10.26.07-19.18,3-25.79,8.32-1,.81-1.93,1.66-2.83,2.56A41.32,41.32,0,0,0,174,2a40.09,40.09,0,0,0-29.16,12.44,40,40,0,0,0-25.66-11c-1-.06-2-.09-3-.09-8.4,0-15.77,2.08-21.9,6.2a35.6,35.6,0,0,0-5.94,5A45,45,0,0,0,59.55,4a41.72,41.72,0,0,0-4.45.23,36.75,36.75,0,0,0-4.24.7c-19.42,4.34-31.59,23-35,39.46-.4,1.9-3.19,11.14-3.31,11.6C2.11,62.18,1.85,71.76,2,74.64A19.85,19.85,0,0,0,13.58,91.2c.22.72,7.23,17.32,20.17,17.32,6.17,0,13.44-3.1,17.54-11.32A48.2,48.2,0,0,0,60,98c.66,0,1.33,0,2,0a42,42,0,0,0,19.19-5.44,38,38,0,0,0,3.69-2.44,24.72,24.72,0,0,0,18.71,8.65,24.46,24.46,0,0,0,10.84-2.53c1.91-.93,14.89,7.92,14.58,11.32v.13c-.24,2.92-.4,5.8-.52,8.66a20.27,20.27,0,0,0-4.56,7c-.32.81-.61,1.64-.87,2.5a19.12,19.12,0,0,0-8.62,22.37,20.13,20.13,0,0,0,9.74,11.74c.22.65.44,1.3.68,1.94,3.67,9.94,12,13.48,18.48,13.48h.53l.45,0,.52,0a25.07,25.07,0,0,0,5.58,1.4,24.8,24.8,0,0,0,3.23.22,25.75,25.75,0,0,0,22.39-13.29,26.21,26.21,0,0,0,1.67-3.77,26.44,26.44,0,0,0,6.19,8.89,26,26,0,0,0,17.74,7,25.54,25.54,0,0,0,13.82-4.05,36.56,36.56,0,0,0,15.17,6.14,75.61,75.61,0,0,0,12.79,1,81.7,81.7,0,0,0,16-1.53,25.63,25.63,0,0,0,14.88-9.18A26.55,26.55,0,0,0,296,179.73h.24a26.66,26.66,0,0,0,19-8,26.12,26.12,0,0,0,7.47-19c-.09-3.36-.65-14.31-.49-15.33l.6-18c0-.83,0-1.65,0-2.47,0-2.17,0-4.42-.06-6.86l0-.42a76.23,76.23,0,0,0-1-10.94,24.91,24.91,0,0,0-4.34-10.12,25.29,25.29,0,0,0,5.34-13c.18-1.8,1.4-3.75,2.11-5.38,1.22-2.78,2.46-5.56,3.5-8.41.38-1,.56-2.79,1.21-3.66.9-1.19,3-2.06,4.1-3.17,4.78-4.75,7.5-12.42,5.14-19A16.08,16.08,0,0,0,338,34.16Z"/>
  <path class="cls-2" d="M45.46,73.12c-2.17-1.43-4.14-2.2-9-3.55-1-15.24-7.16-16.77-7.6-.62-11.53,2.88-12.2,6.35.18,7.81,2.22,18.68,7.79,17.94,7.79.22C38.8,76.28,46.78,76.75,45.46,73.12Z"/>
</svg>